<?xml version="1.0" standalone="no"?>
<!DOCTYPE svg PUBLIC "-//W3C//DTD SVG 20010904//EN"
 "http://www.w3.org/TR/2001/REC-SVG-20010904/DTD/svg10.dtd">
<svg version="1.0" xmlns="http://www.w3.org/2000/svg"
 width="76.000000pt" height="76.000000pt" viewBox="0 0 76.000000 76.000000"
 preserveAspectRatio="xMidYMid meet">
<metadata>
Created by potrace 1.14, written by Peter Selinger 2001-2017
</metadata>
<g transform="translate(0.000000,76.000000) scale(0.100000,-0.100000)"
fill="#000000" stroke="none">
<path d="M278 651 c-41 -26 -79 -65 -74 -77 3 -7 -4 -20 -15 -30 -19 -17 -20
-27 -14 -102 l6 -83 -31 -10 c-36 -13 -36 -14 -10 -46 26 -33 26 -73 1 -80
-10 -3 -21 -16 -24 -29 l-4 -24 158 2 c134 2 159 5 159 18 1 12 3 12 14 -2 11
-15 28 -18 95 -17 l81 1 0 34 c0 30 -3 34 -25 34 -14 0 -25 4 -25 9 0 5 -13
14 -29 21 -41 16 -62 42 -51 60 7 12 10 11 16 -4 7 -18 8 -18 16 4 6 16 14 21
28 17 11 -3 18 -1 14 4 -3 5 -2 15 2 21 16 25 11 48 -9 48 -24 0 -59 38 -50
54 10 16 12 86 2 86 -5 0 -11 11 -15 24 -5 23 -51 74 -60 68 -2 -2 -18 0 -36
3 -54 12 -96 11 -120 -4z"/>
</g>
</svg>
